<?xml version="1.0" encoding="UTF-8"?>
<svg xmlns="http://www.w3.org/2000/svg" width="232" height="56">
  <g fill="none" fill-rule="nonzero">
    <g fill="#002B3E">
      <path d="M92.562 20.752a6.996 6.996 0 0 1-5.56 7.053 7.678 7.678 0 0 1 6.778 8.003c0 5.421-4.383 8.675-11.525 8.675H68.206V12.831h13.74c6.55.017 10.616 3.011 10.616 7.921Zm-5.47.95c0-2.621-2.037-4.115-5.421-4.058h-8.116v8.319h8.116c3.392-.008 5.43-1.55 5.43-4.261h-.009Zm1.218 13.424c0-2.8-2.484-4.52-6.647-4.472h-8.116v9.041h8.116c4.171.04 6.655-1.631 6.655-4.57h-.008ZM116.561 44.483l-5.787-9.576c-.454.048-.95.048-1.444.048h-7.467v9.537h-5.332V12.839h12.799c8.116 0 12.742 3.929 12.742 10.803 0 5.064-2.354 8.627-6.55 10.258l7.094 10.551h-6.055v.032ZM109.33 30.16c4.87 0 7.686-2.078 7.686-6.371 0-4.156-2.8-6.144-7.686-6.144h-7.467V30.16h7.5-.033ZM131.795 12.848V44.5h-5.332V12.848zM159.9 12.848v4.788h-10.031v26.84h-5.332v-26.84h-9.983v-4.788h25.354zM181.237 34.444h-18.171a7.304 7.304 0 0 0 7.458 6.014 9.35 9.35 0 0 0 6.777-2.8l2.76 2.938a13.083 13.083 0 0 1-9.943 4.058c-7.41 0-12.295-4.926-12.295-12.174 0-7.248 5.015-12.174 12.174-12.247 8.432.024 11.873 5.535 11.24 14.211Zm-4.52-3.798c-.179-3.888-2.76-6.233-6.688-6.233-3.798 0-6.493 2.435-7.053 6.233h13.74ZM195.83 24.819c-4.156 0-7.142 3.116-7.142 7.677s2.978 7.686 7.142 7.686c3.027 0 5.47-.998 7.093-2.89l2.89 2.89c-2.168 2.849-5.682 4.472-10.21 4.472-7.143 0-12.11-4.926-12.11-12.174 0-7.248 4.975-12.247 12.11-12.247 4.341 0 7.726 1.404 9.941 3.928l-2.848 3.344a9.082 9.082 0 0 0-6.866-2.686ZM230.907 29.526v14.957h-5.195V30.97c0-3.62-2.166-5.827-5.786-5.827-4.294.049-6.866 3.247-6.866 7.5v11.84h-5.194v-33.51h5.186v14.186c1.72-3.392 4.788-4.87 8.927-4.87 5.576-.032 8.928 3.49 8.928 9.237Z"></path>
    </g>
    <path fill="#002B3E" d="M9.512 34.233V22.408a1.234 1.234 0 0 0-.6-1.096l-7.378-4a1.08 1.08 0 0 0-.511-.13A1.023 1.023 0 0 0 0 18.227v20.193a1.039 1.039 0 0 0 1.039 1.047c.181 0 .36-.045.52-.13l7.352-4.001c.387-.23.617-.654.6-1.104Z"></path>
    <path fill="#833293" d="m28.982 11.168 11.03 6.37c.385.208.848.208 1.233 0l7.353-3.976a1.023 1.023 0 0 0 0-1.81L29.883.95a1.023 1.023 0 0 0-1.55.9v8.222c.008.454.255.87.649 1.096Z"></path>
    <path fill="#002B3E" d="m3.766 13.578 7.353 3.977c.385.208.849.208 1.233 0l10.965-6.371c.366-.238.579-.652.56-1.088V1.875A.974.974 0 0 0 22.92.828a.958.958 0 0 0-.503.146L3.75 11.776c-.33.183-.533.532-.528.91.007.373.215.714.544.892ZM51.268 17.173a.982.982 0 0 0-.487.13l-7.401 4.001c-.397.223-.644.641-.65 1.096v11.825c.019.464.285.883.698 1.096l7.41 3.993c.163.083.345.125.528.121a.9.9 0 0 0 .738-.357.998.998 0 0 0 .187-.665V18.22a.99.99 0 0 0-1.023-1.047ZM23.325 45.32l-10.867-6.29a1.29 1.29 0 0 0-1.217 0l-7.345 3.976a1.023 1.023 0 0 0 0 1.81l18.585 10.73c.165.095.353.146.544.146a.885.885 0 0 0 .722-.382c.13-.196.188-.431.163-.665v-8.222a1.234 1.234 0 0 0-.585-1.104ZM48.468 42.99l-7.353-3.977a1.323 1.323 0 0 0-1.233 0l-10.892 6.29a1.29 1.29 0 0 0-.625 1.088v8.221a1.023 1.023 0 0 0 1.55.901l18.578-10.73a1.023 1.023 0 0 0-.025-1.793Z"></path>
    <g fill="#3DC5E7">
      <path d="M25.208 27.675V15.12l-10.705 6.144c-.4.222-.663.63-.698 1.087V33.99l11.403-6.315ZM27.034 27.773l11.363 6.2V22.335a1.299 1.299 0 0 0-.634-1.087L27.034 15.03V27.773ZM26.028 29.307l-11.119 6.152 10.616 6.11c.199.11.422.166.649.163.221.001.44-.055.633-.162l10.55-6.095-11.33-6.168Z"></path>
    </g>
  </g>
</svg>
